<?xml version="1.0" standalone="no"?>
<svg xmlns="http://www.w3.org/2000/svg" version="1.1">
  <svg id="htmlSVG" viewBox="0 0 128 128">
    <path fill="#E44D26" d="M27.854 116.354l-8.043-90.211h88.378l-8.051 90.197-36.192 10.033z"></path><path fill="#F16529" d="M64 118.704l29.244-8.108 6.881-77.076h-36.125z"></path><path fill="#EBEBEB" d="M64 66.978h-14.641l-1.01-11.331h15.651v-11.064h-27.743l.264 2.969 2.72 30.489h24.759zM64 95.711l-.049.013-12.321-3.328-.788-8.823h-11.107l1.55 17.372 22.664 6.292.051-.015z"></path><path d="M28.034 1.627h5.622v5.556h5.144v-5.556h5.623v16.822h-5.623v-5.633h-5.143v5.633h-5.623v-16.822zM51.816 7.206h-4.95v-5.579h15.525v5.579h-4.952v11.243h-5.623v-11.243zM64.855 1.627h5.862l3.607 5.911 3.603-5.911h5.865v16.822h-5.601v-8.338l-3.867 5.981h-.098l-3.87-5.981v8.338h-5.502v-16.822zM86.591 1.627h5.624v11.262h7.907v5.561h-13.531v-16.823z"></path><path fill="#fff" d="M63.962 66.978v11.063h13.624l-1.284 14.349-12.34 3.331v11.51l22.682-6.286.166-1.87 2.6-29.127.27-2.97h-2.982zM63.962 44.583v11.064h26.725l.221-2.487.505-5.608.265-2.969z"></path>
  </svg>
  <svg id="cssSVG" viewBox="0 0 128 128">
    <path fill="#131313" d="M89.234 5.856h-7.384l7.679 8.333v3.967h-15.816v-4.645h7.678l-7.678-8.333v-3.971h15.521v4.649zm-18.657 0h-7.384l7.679 8.333v3.967h-15.817v-4.645h7.679l-7.679-8.333v-3.971h15.522v4.649zm-18.474.19h-7.968v7.271h7.968v4.839h-13.632v-16.949h13.632v4.839z"></path><path fill="#1572B6" d="M27.613 116.706l-8.097-90.813h88.967l-8.104 90.798-36.434 10.102-36.332-10.087z"></path><path fill="#33A9DC" d="M64.001 119.072l29.439-8.162 6.926-77.591h-36.365v85.753z"></path><path fill="#fff" d="M64 66.22h14.738l1.019-11.405h-15.757v-11.138h27.929000000000002l-.267 2.988-2.737 30.692h-24.925v-11.137z"></path><path fill="#EBEBEB" d="M64.067 95.146l-.049.014-12.404-3.35-.794-8.883h-11.178999999999998l1.561 17.488 22.814 6.333.052-.015v-11.587z"></path><path fill="#fff" d="M77.792 76.886l-1.342 14.916-12.422 3.353v11.588l22.833-6.328.168-1.882 1.938-21.647h-11.175z"></path><path fill="#EBEBEB" d="M64.039 43.677v11.136999999999999h-26.903000000000002l-.224-2.503-.507-5.646-.267-2.988h27.901zM64 66.221v11.138h-12.247l-.223-2.503-.508-5.647-.267-2.988h13.245z"></path>
  </svg>
  <svg id="jsSVG" viewBox="0 0 128 128">
    <path fill="#F0DB4F" d="M1.408 1.408h125.184v125.185h-125.184z"></path><path fill="#323330" d="M116.347 96.736c-.917-5.711-4.641-10.508-15.672-14.981-3.832-1.761-8.104-3.022-9.377-5.926-.452-1.69-.512-2.642-.226-3.665.821-3.32 4.784-4.355 7.925-3.403 2.023.678 3.938 2.237 5.093 4.724 5.402-3.498 5.391-3.475 9.163-5.879-1.381-2.141-2.118-3.129-3.022-4.045-3.249-3.629-7.676-5.498-14.756-5.355l-3.688.477c-3.534.893-6.902 2.748-8.877 5.235-5.926 6.724-4.236 18.492 2.975 23.335 7.104 5.332 17.54 6.545 18.873 11.531 1.297 6.104-4.486 8.08-10.234 7.378-4.236-.881-6.592-3.034-9.139-6.949-4.688 2.713-4.688 2.713-9.508 5.485 1.143 2.499 2.344 3.63 4.26 5.795 9.068 9.198 31.76 8.746 35.83-5.176.165-.478 1.261-3.666.38-8.581zm-46.885-37.793h-11.709l-.048 30.272c0 6.438.333 12.34-.714 14.149-1.713 3.558-6.152 3.117-8.175 2.427-2.059-1.012-3.106-2.451-4.319-4.485-.333-.584-.583-1.036-.667-1.071l-9.52 5.83c1.583 3.249 3.915 6.069 6.902 7.901 4.462 2.678 10.459 3.499 16.731 2.059 4.082-1.189 7.604-3.652 9.448-7.401 2.666-4.915 2.094-10.864 2.07-17.444.06-10.735.001-21.468.001-32.237z"></path>
  </svg>
  <svg id="jquerySVG" viewBox="0 0 128 128">
    <path fill="#0868AC" d="M27.758 20.421c-7.352 10.565-6.437 24.312-.82 35.54l.411.798.263.506.164.291.293.524c.174.307.353.612.536.919l.306.504c.203.326.41.65.622.973l.265.409c.293.437.592.872.901 1.301l.026.033.152.205c.267.368.542.732.821 1.093l.309.393c.249.313.502.623.759.934l.29.346c.345.406.698.812 1.057 1.208l.021.022.041.045c.351.383.71.758 1.075 1.133l.344.347c.282.284.569.563.858.841l.351.334c.387.364.777.722 1.176 1.07l.018.016.205.174c.351.305.708.605 1.068.902l.442.353c.294.235.591.468.89.696l.477.361c.33.243.663.482.999.717l.363.258.101.072c.318.22.645.431.97.642l.42.28c.5.315 1.007.628 1.519.93l.42.237c.377.217.756.431 1.14.639l.631.326.816.424.188.091.334.161c.427.204.858.405 1.293.599l.273.122c.498.218 1.001.427 1.508.628l.368.144c.469.182.945.359 1.423.527l.179.062c.524.184 1.054.353 1.587.52l.383.114c.542.164 1.079.358 1.638.462 35.553 6.483 45.88-21.364 45.88-21.364-8.674 11.3-24.069 14.28-38.656 10.962-.553-.125-1.089-.298-1.628-.456l-.406-.124c-.526-.161-1.049-.33-1.568-.51l-.215-.077c-.465-.164-.924-.336-1.382-.513l-.388-.152c-.501-.198-1-.405-1.492-.62l-.298-.133c-.423-.191-.842-.384-1.259-.585l-.364-.175c-.327-.159-.65-.328-.974-.495l-.649-.341c-.395-.21-.782-.43-1.167-.654l-.394-.219c-.513-.303-1.019-.615-1.52-.932l-.41-.273c-.363-.234-.725-.473-1.081-.719l-.349-.245c-.344-.242-.685-.489-1.022-.738l-.453-.343c-.31-.237-.618-.476-.922-.721l-.411-.33c-.388-.318-.771-.64-1.149-.969l-.126-.105c-.409-.359-.811-.728-1.208-1.098l-.34-.328c-.294-.279-.584-.561-.868-.851l-.34-.34c-.362-.37-.717-.745-1.065-1.126l-.053-.057c-.368-.402-.728-.813-1.08-1.229l-.283-.336c-.263-.316-.523-.638-.777-.961l-.285-.355c-.307-.397-.605-.793-.898-1.195-8.098-11.047-11.008-26.283-4.535-38.795M50.578 11.519c-5.316 7.65-5.028 17.893-.88 25.983.695 1.356 1.477 2.673 2.351 3.925.796 1.143 1.68 2.501 2.737 3.418.383.422.784.834 1.193 1.238l.314.311c.397.385.801.764 1.218 1.132l.05.043.012.012c.462.405.939.794 1.423 1.178l.323.252c.486.372.981.738 1.489 1.087l.043.033.68.447.322.213c.363.233.73.459 1.104.676l.156.092c.322.185.648.367.975.545l.347.18.682.354.103.047c.469.23.941.453 1.424.663l.314.13c.386.163.775.323 1.167.473l.5.184c.356.132.712.253 1.072.373l.484.155c.511.158 1.017.359 1.549.448 27.45 4.547 33.787-16.588 33.787-16.588-5.712 8.228-16.775 12.153-28.58 9.089-.524-.138-1.042-.288-1.555-.449l-.467-.151c-.365-.117-.728-.243-1.087-.374l-.491-.183c-.394-.152-.784-.309-1.171-.473l-.315-.133c-.485-.211-.962-.434-1.432-.666l-.718-.365-.414-.213c-.306-.166-.61-.338-.909-.514l-.217-.123c-.372-.217-.738-.44-1.1-.672l-.332-.221-.712-.472c-.506-.349-.999-.714-1.484-1.085l-.334-.264c-5.167-4.079-9.263-9.655-11.21-15.977-2.041-6.557-1.601-13.917 1.935-19.891M69.771 4.868c-3.134 4.612-3.442 10.341-1.267 15.435 2.293 5.407 6.992 9.648 12.477 11.66l.682.235.3.096c.323.102.644.22.978.282 15.157 2.929 19.268-7.777 20.362-9.354-3.601 5.185-9.653 6.43-17.079 4.627-.586-.142-1.231-.354-1.796-.555-.725-.259-1.439-.553-2.134-.886-1.318-.634-2.575-1.402-3.741-2.282-6.645-5.042-10.772-14.659-6.436-22.492"></path><path fill="#131B28" d="M66.359 96.295h-4.226c-.234 0-.467.188-.517.417l-1.5 6.94-1.5 6.94c-.049.229-.282.417-.516.417h-2.991c-2.959 0-2.617-2.047-2.011-4.851l.018-.085.066-.354.012-.066.135-.72.145-.771.154-.785.682-3.332.683-3.332c.047-.23-.107-.419-.341-.419h-4.337c-.234 0-.466.188-.514.418l-.933 4.424-.932 4.425-.002.006-.086.412c-1.074 4.903-.79 9.58 5.048 9.727l.17.003h9.163c.234 0 .467-.188.516-.417l1.976-9.289 1.976-9.29c.049-.23-.103-.417-.338-.418zM21.103 96.246h-4.64c-.235 0-.469.188-.521.416l-.44 1.942-.44 1.942c-.051.229.098.416.333.416h4.676c.235 0 .468-.188.518-.417l.425-1.941.425-1.941c.049-.229-.101-.417-.336-.417zM19.757 102.29h-4.677c-.234 0-.469.188-.521.416l-.657 2.91-.656 2.909-.183.834-.631 2.97-.63 2.971c-.049.229-.15.599-.225.821 0 0-.874 2.6-2.343 2.57l-.184-.004-1.271-.023h-.001c-.234-.003-.469.18-.524.407l-.485 2.039-.484 2.038c-.055.228.093.416.326.42.833.01 2.699.031 3.828.031 3.669 0 5.604-2.033 6.843-7.883l1.451-6.714 1.361-6.297c.049-.227-.103-.415-.337-.415zM105.874 100.716l-.194-.801-.191-.82-.097-.414c-.38-1.477-1.495-2.328-3.917-2.328l-3.77-.004-3.472-.005h-3.907c-.234 0-.466.188-.515.417l-.173.816-.204.964-.057.271-1.759 8.24-1.67 7.822c-.05.23-.066.512-.038.626.028.115.479.209.713.209h3.524c.235 0 .532-.042.66-.094s.317-.513.364-.742l.626-3.099.627-3.1.001-.005.084-.413.76-3.56.671-3.144c.05-.229.281-.416.515-.417l11.089-.005c.235.002.383-.185.33-.414zM120.149 93.476l-.854.003h-3.549c-.235 0-.536.159-.667.353l-7.849 11.498c-.132.194-.283.166-.335-.062l-.578-2.533c-.052-.229-.287-.416-.522-.416h-5.045c-.235 0-.374.184-.31.409l2.261 7.921c.064.226.069.596.011.824l-.985 3.833c-.059.228.085.413.32.413h4.987c.234 0 .474-.186.532-.413l.986-3.833c.058-.229.221-.567.363-.755l12.742-16.911c.142-.188.065-.341-.169-.339l-1.339.008zM80.063 103.395v-.004c-.029.254-.264.441-.499.441h-6.397c-.222 0-.334-.15-.301-.336l.006-.015-.004.002.003-.021.029-.109c.611-1.624 1.855-2.69 4.194-2.69 2.634-.001 3.148 1.285 2.969 2.732zm-1.877-7.384c-8.211 0-10.157 4.984-11.249 10.015-1.091 5.128-.998 9.921 7.5 9.921h1.03l.256-.001h.06l1.02-.003h.018c2.244-.009 4.495-.026 5.406-.033.233-.004.461-.191.509-.42l.344-1.681.067-.327.41-2.006c.047-.229-.106-.418-.341-.418h-7.639c-3.039 0-3.941-.807-3.608-3.181h12.211l-.001.001.008-.001c.194-.003.374-.137.445-.315l.029-.106-.001.001c1.813-6.839 1.293-11.445-6.474-11.446zM39.376 103.369l-.116.409v.001l-.922 3.268-.922 3.267c-.063.227-.308.411-.543.411h-4.88c-3.702 0-4.604-2.896-3.702-7.166.901-4.368 2.668-7.083 6.312-7.358 4.98-.376 5.976 3.126 4.773 7.168zm3.348 7.105s2.301-5.588 2.823-8.814c.713-4.319-1.45-10.585-9.804-10.585-8.306 0-11.914 5.981-13.29 12.484-1.376 6.55.427 12.293 8.686 12.246l6.516-.024 6.089-.022c.234-.002.474-.188.534-.414l1.061-4.046c.059-.228-.084-.414-.319-.416l-1.017-.006-1.017-.006c-.199-.001-.313-.131-.289-.302l.027-.095zM83.844 106.733c0 .155-.125.281-.28.281-.154 0-.28-.126-.28-.281 0-.154.125-.279.28-.279.155 0 .28.125.28.279z"></path>
  </svg>
  <svg id="githubSVG" role="img" viewBox="0 0 24 24" xmlns="http://www.w3.org/2000/svg">
    <title id="simpleicons-github-icon">GitHub icon</title>
  <path d="M12 .297c-6.63 0-12 5.373-12 12 0 5.303 3.438 9.8 8.205 11.385.6.113.82-.258.82-.577 0-.285-.01-1.04-.015-2.04-3.338.724-4.042-1.61-4.042-1.61C4.422 18.07 3.633 17.7 3.633 17.7c-1.087-.744.084-.729.084-.729 1.205.084 1.838 1.236 1.838 1.236 1.07 1.835 2.809 1.305 3.495.998.108-.776.417-1.305.76-1.605-2.665-.3-5.466-1.332-5.466-5.93 0-1.31.465-2.38 1.235-3.22-.135-.303-.54-1.523.105-3.176 0 0 1.005-.322 3.3 1.23.96-.267 1.98-.399 3-.405 1.02.006 2.04.138 3 .405 2.28-1.552 3.285-1.23 3.285-1.23.645 1.653.24 2.873.12 3.176.765.84 1.23 1.91 1.23 3.22 0 4.61-2.805 5.625-5.475 5.92.42.36.81 1.096.81 2.22 0 1.606-.015 2.896-.015 3.286 0 .315.21.69.825.57C20.565 22.092 24 17.592 24 12.297c0-6.627-5.373-12-12-12"/>
  </svg>
<svg id="githubcolorSVG" viewBox="0 0 256 259.3" version="1.1" xmlns="http://www.w3.org/2000/svg" xmlns:xlink="http://www.w3.org/1999/xlink">
    <g>
        <path fill="#9EDCF2" d="M200.9,199.8c0,13.9-32.2,25.1-71.9,25.1c-39.7,0-71.9-11.3-71.9-25.1c0-13.9,32.2-25.1,71.9-25.1C168.7,174.7,200.9,185.9,200.9,199.8L200.9,199.8z M200.9,199.8" />
        <g>
            <defs>
                <path id="SVGID_1_" d="M98.1,244.8c1.6,7.5,5.5,11.9,9.4,14.5l41.1,0c5-3.4,10.1-9.8,10.1-21.8v-31c0,0,0.6-7.7,7.7-10.2c0,0,4.1-2.9-0.3-4.5c0,0-19.5-1.6-19.5,14.4v23.6c0,0,0.8,8.7-3.8,12.3v-29.2c0,0,0.3-9.3,5.1-12.8c0,0,3.2-5.7-3.8-4.2c0,0-13.4,1.9-14,17.6l-0.3,30h-3.2l-0.3-30c-0.6-15.6-14-17.6-14-17.6c-7-1.6-3.8,4.2-3.8,4.2c4.8,3.5,5.1,12.8,5.1,12.8v29.5c-4.6-3.3-3.8-12.6-3.8-12.6v-23.6c0-16-19.5-14.4-19.5-14.4c-4.5,1.6-0.3,4.5-0.3,4.5c7,2.6,7.7,10.2,7.7,10.2v21.7L98.1,244.8z" />
            </defs>
            <clipPath id="SVGID_2_">
                <use xlink:href="#SVGID_1_" overflow="visible" />
            </clipPath>
            <path clip-path="url(#SVGID_2_)" fill="#7DBCE7" d="M200.9,199.8c0,13.9-32.2,25.1-71.9,25.1c-39.7,0-71.9-11.3-71.9-25.1c0-13.9,32.2-25.1,71.9-25.1C168.7,174.7,200.9,185.9,200.9,199.8L200.9,199.8z M200.9,199.8" />
        </g>
        <path fill="#9EDCF2" d="M46.9,125.9l-2.1,7.2c0,0-0.5,2.6,1.9,3.1c2.6-0.1,2.4-2.5,2.2-3.2L46.9,125.9L46.9,125.9z M46.9,125.9" />
        <path fill="#010101" d="M255.8,95.6l0.2-0.9c-21.1-4.2-42.7-4.3-55.8-3.7c2.1-7.7,2.8-16.7,2.8-26.6c0-14.3-5.4-25.7-14-34.3c1.5-4.9,3.5-15.8-2-29.7c0,0-9.8-3.1-32.1,11.8c-8.7-2.2-18-3.3-27.3-3.3c-10.2,0-20.5,1.3-30.2,3.9C74.4-2.9,64.3,0.3,64.3,0.3c-6.6,16.5-2.5,28.8-1.3,31.8c-7.8,8.4-12.5,19.1-12.5,32.2c0,9.9,1.1,18.8,3.9,26.5c-13.2-0.5-34-0.3-54.4,3.8l0.2,0.9c20.4-4.1,41.4-4.2,54.5-3.7c0.6,1.6,1.3,3.2,2,4.7c-13,0.4-35.1,2.1-56.3,8.1l0.3,0.9c21.4-6,43.7-7.6,56.6-8c7.8,14.4,23,23.8,50.2,26.7c-3.9,2.6-7.8,7-9.4,14.5c-5.3,2.5-21.9,8.7-31.9-8.5c0,0-5.6-10.2-16.3-11c0,0-10.4-0.2-0.7,6.5c0,0,6.9,3.3,11.7,15.6c0,0,6.3,21,36.4,14.2V177c0,0-0.6,7.7-7.7,10.2c0,0-4.2,2.9,0.3,4.5c0,0,19.5,1.6,19.5-14.4v-23.6c0,0-0.8-9.4,3.8-12.6v38.8c0,0-0.3,9.3-5.1,12.8c0,0-3.2,5.7,3.8,4.2c0,0,13.4-1.9,14-17.6l0.3-39.3h3.2l0.3,39.3c0.6,15.6,14,17.6,14,17.6c7,1.6,3.8-4.2,3.8-4.2c-4.8-3.5-5.1-12.8-5.1-12.8v-38.5c4.6,3.6,3.8,12.3,3.8,12.3v23.6c0,16,19.5,14.4,19.5,14.4c4.5-1.6,0.3-4.5,0.3-4.5c-7-2.6-7.7-10.2-7.7-10.2v-31c0-12.1-5.1-18.5-10.1-21.8c29-2.9,42.9-12.2,49.3-26.8c12.7,0.3,35.6,1.9,57.4,8.1l0.3-0.9c-21.7-6.1-44.4-7.7-57.3-8.1c0.6-1.5,1.1-3,1.6-4.6C212.9,91.4,234.6,91.4,255.8,95.6L255.8,95.6z M255.8,95.6" />
        <path fill="#F5CCB3" d="M174.6,63.7c6.2,5.7,9.9,12.5,9.9,19.8c0,34.4-25.6,35.3-57.2,35.3c-31.6,0-57.2-4.8-57.2-35.3c0-7.3,3.6-14.1,9.8-19.7c10.3-9.4,27.7-4.4,47.4-4.4C147,59.4,164.3,54.3,174.6,63.7L174.6,63.7z M174.6,63.7" />
        <path fill="#FFFFFF" d="M108.3,85.3c0,9.5-5.3,17.1-11.9,17.1c-6.6,0-11.9-7.7-11.9-17.1c0-9.5,5.3-17.1,11.9-17.1C103,68.1,108.3,75.8,108.3,85.3L108.3,85.3z M108.3,85.3" />
        <path fill="#AF5C51" d="M104.5,85.5c0,6.3-3.6,11.4-7.9,11.4c-4.4,0-7.9-5.1-7.9-11.4c0-6.3,3.6-11.4,7.9-11.4C100.9,74.1,104.5,79.2,104.5,85.5L104.5,85.5z M104.5,85.5" />
        <path fill="#FFFFFF" d="M172.2,85.3c0,9.5-5.3,17.1-11.9,17.1c-6.6,0-11.9-7.7-11.9-17.1c0-9.5,5.3-17.1,11.9-17.1C166.8,68.1,172.2,75.8,172.2,85.3L172.2,85.3z M172.2,85.3" />
        <path fill="#AF5C51" d="M168.3,85.5c0,6.3-3.6,11.4-7.9,11.4c-4.4,0-7.9-5.1-7.9-11.4c0-6.3,3.6-11.4,7.9-11.4C164.8,74.1,168.3,79.2,168.3,85.5L168.3,85.5z M168.3,85.5" />
        <path fill="#AF5C51" d="M130.5,100.5c0,1.6-1.3,3-3,3c-1.6,0-3-1.3-3-3s1.3-3,3-3C129.1,97.5,130.5,98.8,130.5,100.5L130.5,100.5z M130.5,100.5" />
        <path fill="#AF5C51" d="M120.6,108c-0.2-0.5,0.1-1,0.6-1.2c0.5-0.2,1,0.1,1.2,0.6c0.8,2.2,2.8,3.6,5.1,3.6c2.3,0,4.3-1.5,5.1-3.6c0.2-0.5,0.7-0.8,1.2-0.6c0.5,0.2,0.8,0.7,0.6,1.2c-1,2.9-3.8,4.9-6.9,4.9C124.4,112.9,121.6,110.9,120.6,108L120.6,108z M120.6,108" />
        <path fill="#C4E5D9" d="M54.5,121.6c0,0.8-0.9,1.4-2.1,1.4c-1.1,0-2.1-0.6-2.1-1.4c0-0.8,0.9-1.4,2.1-1.4C53.6,120.2,54.5,120.8,54.5,121.6L54.5,121.6z M54.5,121.6" />
        <path fill="#C4E5D9" d="M60.3,124.8c0,0.8-0.9,1.4-2.1,1.4c-1.1,0-2.1-0.6-2.1-1.4c0-0.8,0.9-1.4,2.1-1.4C59.4,123.4,60.3,124,60.3,124.8L60.3,124.8z M60.3,124.8" />
        <path fill="#C4E5D9" d="M63.8,129c0,0.8-0.9,1.4-2.1,1.4c-1.1,0-2.1-0.6-2.1-1.4c0-0.8,0.9-1.4,2.1-1.4C62.9,127.5,63.8,128.2,63.8,129L63.8,129z M63.8,129" />
        <path fill="#C4E5D9" d="M67,133.8c0,0.8-0.9,1.4-2.1,1.4c-1.1,0-2.1-0.6-2.1-1.4c0-0.8,0.9-1.4,2.1-1.4C66.1,132.3,67,133,67,133.8L67,133.8z M67,133.8" />
        <path fill="#C4E5D9" d="M70.5,138.2c0,0.8-0.9,1.4-2.1,1.4c-1.1,0-2.1-0.6-2.1-1.4c0-0.8,0.9-1.4,2.1-1.4C69.6,136.8,70.5,137.4,70.5,138.2L70.5,138.2z M70.5,138.2" />
        <path fill="#C4E5D9" d="M75.3,142.1c0,0.8-0.9,1.4-2.1,1.4c-1.1,0-2.1-0.6-2.1-1.4c0-0.8,0.9-1.4,2.1-1.4C74.4,140.6,75.3,141.3,75.3,142.1L75.3,142.1z M75.3,142.1" />
        <path fill="#C4E5D9" d="M82,144.6c0,0.8-0.9,1.4-2.1,1.4c-1.1,0-2.1-0.6-2.1-1.4c0-0.8,0.9-1.4,2.1-1.4C81.1,143.2,82,143.8,82,144.6L82,144.6z M82,144.6" />
        <path fill="#C4E5D9" d="M88.7,144.6c0,0.8-0.9,1.4-2.1,1.4c-1.1,0-2.1-0.6-2.1-1.4c0-0.8,0.9-1.4,2.1-1.4C87.8,143.2,88.7,143.8,88.7,144.6L88.7,144.6z M88.7,144.6" />
        <path fill="#C4E5D9" d="M95.5,143.5c0,0.8-0.9,1.4-2.1,1.4c-1.1,0-2.1-0.6-2.1-1.4c0-0.8,0.9-1.4,2.1-1.4C94.5,142.1,95.5,142.7,95.5,143.5L95.5,143.5z M95.5,143.5" />
    </g>
</svg>
<svg id="linkinSVG" role="img" viewBox="0 0 24 24" xmlns="http://www.w3.org/2000/svg">
    <title id="simpleicons-linkedin-icon">LinkedIn icon</title>
    <path d="M20.447 20.452h-3.554v-5.569c0-1.328-.027-3.037-1.852-3.037-1.853 0-2.136 1.445-2.136 2.939v5.667H9.351V9h3.414v1.561h.046c.477-.9 1.637-1.85 3.37-1.85 3.601 0 4.267 2.37 4.267 5.455v6.286zM5.337 7.433c-1.144 0-2.063-.926-2.063-2.065 0-1.138.92-2.063 2.063-2.063 1.14 0 2.064.925 2.064 2.063 0 1.139-.925 2.065-2.064 2.065zm1.782 13.019H3.555V9h3.564v11.452zM22.225 0H1.771C.792 0 0 .774 0 1.729v20.542C0 23.227.792 24 1.771 24h20.451C23.2 24 24 23.227 24 22.271V1.729C24 .774 23.2 0 22.222 0h.003z"/>
  </svg>
  <svg id="treehouseSVG" role="img" viewBox="0 0 24 24" xmlns="http://www.w3.org/2000/svg">
    <title id="simpleicons-treehouse-icon">Treehouse icon</title>
    <path d="M20.537 4.118c-.806-.453-2.092.278-2.871 1.635L16.25 8.215a3.104 3.104 0 0 0 .21 3.18l.041.062c.653.94 1.535 1.808 1.823 2.118a1.613 1.613 0 0 1-.739 2.654 1.603 1.603 0 0 1-2.025-1.747c.045-.35-.067-.927-.574-1.489-.506-.563-1.54.5-1.874 1.61l-.016.061c-.334 1.094-.546 2.05-.482 2.143.037.06.072.12.105.182a1.81 1.81 0 0 1-3.196 1.701 1.806 1.806 0 0 1 .747-2.446l.121-.061c.065-.03.26-.486.423-1.032l.301-.987c.019-.047.033-.107.045-.168l.897-3.19-.957 1.96c-.112-.363-.3-.38-.709-.091-.243.183-.653.531-.85.669-.365.273-.685.788-.851 1.109a1.313 1.313 0 0 1-.41.5c-.684.564-1.687.456-2.234-.227a1.591 1.591 0 0 1 .912-2.552c.409-.092 1.777-.927 2.596-1.52.152-.106.274-.197.38-.304l2.203-1.67-1.914 1.032s-.196-.016-.426.017c-.698.075-1.428.182-1.564.35a.999.999 0 0 1-.29.272c-.637.456-1.519.32-1.989-.317A1.437 1.437 0 0 1 6.29 8.04c.259-.183.577-.274.865-.274.518.016 1.87.29 2.993.092l.288-.045c1.14-.196 2.476-1.186 3.024-2.187l1.184-2.067c.653-1.139.608-2.384-.105-2.795l-1.323-.76c-.653-.363-1.715-.363-2.354 0L2.004 4.97C1.337 5.319.805 6.23.805 6.975v9.744c0 .744.532 1.656 1.178 2.02l8.85 4.983c.652.365 1.716.365 2.354 0l8.826-4.983c.653-.368 1.184-1.276 1.184-2.02v-9.76c0-.744-.531-1.653-1.169-2.02l-1.46-.823"/>
  </svg>
  <svg id="gmailSVG" viewBox="0 0 256 194" version="1.1" xmlns="http://www.w3.org/2000/svg" xmlns:xlink="http://www.w3.org/1999/xlink">
    <defs>
      <linearGradient x1="0.00388991071%" y1="49.997619%" x2="100.032232%" y2="49.997619%" id="linearGradient-1">
        <stop stop-color="#000000" stop-opacity="0.1" offset="0%"></stop>
        <stop stop-color="#000000" stop-opacity="0.2" offset="100%"></stop>
      </linearGradient>
    </defs>
    	<g>
    		<path d="M238.833923,193.595007 L16.1542195,193.595007 C7.51970044,193.595007 0.248526454,186.551057 0.248526454,177.689314 L0.248526454,16.8145898 C0.248526454,8.18007073 7.29247625,0.908896748 16.1542195,0.908896748 L238.833923,0.908896748 C247.468442,0.908896748 254.739616,7.95284654 254.739616,16.8145898 L254.739616,177.689314 C254.739616,186.551057 247.695666,193.595007 238.833923,193.595007 L238.833923,193.595007 Z" fill="#E3E3E3"></path>
    		<path d="M32.0599126,193.595007 L127.266847,117.020456 L127.94852,112.930421 L29.7876708,42.2636988 L29.5604466,190.186644 L32.0599126,193.595007 Z" opacity="0.1" fill="#231F20"></path>
    		<path d="M16.1542195,193.595007 C7.29247625,193.595007 0.248526454,186.551057 0.248526454,177.689314 L0.248526454,16.5873656 C0.248526454,7.72562236 7.29247625,6.13505305 16.1542195,6.13505305 C25.0159628,6.13505305 32.0599126,7.95284654 32.0599126,16.5873656 L32.0599126,193.595007 L16.1542195,193.595007 L16.1542195,193.595007 Z" fill="#D54B3D"></path>
    		<path d="M16.1542195,8.40729492 C27.5154289,8.40729492 29.7876708,11.8156577 29.7876708,16.5873656 L29.7876708,191.322765 L16.1542195,191.322765 C8.65582137,191.322765 2.52076832,185.187712 2.52076832,177.689314 L2.52076832,16.5873656 C2.52076832,11.5884335 4.79301019,8.40729492 16.1542195,8.40729492 L16.1542195,8.40729492 Z M16.1542195,6.13505305 C7.29247625,6.13505305 0.248526454,7.95284654 0.248526454,16.5873656 L0.248526454,177.689314 C0.248526454,186.551057 7.29247625,193.595007 16.1542195,193.595007 L32.0599126,193.595007 L32.0599126,16.5873656 C32.0599126,7.72562236 25.0159628,6.13505305 16.1542195,6.13505305 L16.1542195,6.13505305 L16.1542195,6.13505305 Z" fill="#D72B27"></path>
    		<path d="M238.833923,193.595007 L222.92823,193.595007 L222.92823,16.1329173 C222.92823,7.27117398 229.972179,6.13505305 238.833923,6.13505305 C247.695666,6.13505305 254.739616,7.27117398 254.739616,16.1329173 L254.739616,177.916538 C254.739616,186.551057 247.695666,193.595007 238.833923,193.595007 L238.833923,193.595007 Z" fill="#D54B3D"></path>
    		<path d="M238.833923,8.40729492 C249.059011,8.40729492 252.467374,10.4523126 252.467374,16.1329173 L252.467374,177.916538 C252.467374,185.414937 246.332321,191.54999 238.833923,191.54999 L225.200472,191.54999 L225.200472,16.1329173 C225.200472,10.2250884 228.608834,8.40729492 238.833923,8.40729492 L238.833923,8.40729492 Z M238.833923,6.13505305 C229.972179,6.13505305 222.92823,7.27117398 222.92823,16.1329173 L222.92823,193.822231 L238.833923,193.822231 C247.695666,193.822231 254.739616,186.778282 254.739616,177.916538 L254.739616,16.1329173 C254.739616,7.27117398 247.695666,6.13505305 238.833923,6.13505305 L238.833923,6.13505305 L238.833923,6.13505305 Z" fill="#D72B27"></path>
    		<path d="M170.666667,193.595007 L1.57979906,23.1947544 L10.4736149,26.8124541 L128.175744,111.567076 L254.73962,18.7604631 L254.739616,177.916538 C254.739616,186.551057 247.695666,193.595007 238.833923,193.595007 L170.666667,193.595007 Z" fill="url(#linearGradient-1)"></path>
    		<path d="M127.266847,117.020456 L7.06525206,29.7663685 C0.0213022675,24.5402122 -2.02371542,14.542348 3.20244088,7.49839817 C8.42859718,0.454448374 18.6536856,-1.13612093 25.9248596,4.09003537 L127.494071,77.9378961 L229.744955,3.18113862 C236.788905,-2.04501768 246.786769,-0.454448374 252.012926,6.81672561 C257.239082,13.8606754 255.648513,23.8585396 248.377339,29.0846959 L127.266847,117.020456 L127.266847,117.020456 Z" fill="#D54B3D"></path>
    		<path d="M238.833923,2.27224187 L238.833923,2.27224187 C243.151182,2.27224187 247.241218,4.31725955 249.967908,7.95284654 C254.285167,14.0878996 252.921822,22.4951945 247.013993,27.0396782 L127.266847,114.293766 L8.42859718,27.948575 C2.29354414,23.4040913 0.702974828,14.7695722 5.02023438,8.86174329 C7.51970044,5.45338049 11.83696,3.18113862 16.3814437,3.18113862 C19.3353582,3.18113862 22.2892726,4.09003537 24.5615145,5.90782886 L125.903502,79.5284654 L127.266847,80.4373622 L128.630192,79.5284654 L230.653852,4.77170793 C233.153318,3.18113862 235.880008,2.27224187 238.833923,2.27224187 L238.833923,2.27224187 Z M238.833923,0 C235.652784,0 232.244421,0.908896748 229.517731,2.95391443 L127.266847,77.7106719 L25.6976354,3.86281118 C22.9709451,1.8177935 19.5625823,0.908896748 16.1542195,0.908896748 C11.1552874,0.908896748 6.15635532,3.18113862 2.9752167,7.49839817 C-2.02371542,14.542348 0.0213022675,24.5402122 7.06525206,29.7663685 L127.266847,117.24768 L248.150114,29.0846959 C255.194064,23.8585396 256.784634,14.0878996 251.785701,6.81672561 C248.604563,2.27224187 243.832855,0 238.833923,0 L238.833923,0 L238.833923,0 Z" fill="#D72B27"></path>
    	</g>
    </svg>

</svg>
